<svg xmlns="http://www.w3.org/2000/svg" xmlns:xlink="http://www.w3.org/1999/xlink" version="1.0" x="0px" y="0px" viewBox="0 0 100 125" enable-background="new 0 0 100 100" xml:space="preserve"><g><path d="M76.3,60.6V21.6c0-2.4-1.9-4.3-4.3-4.3H25.9c-2.4,0-4.3,1.9-4.3,4.3v56.8c0,2.4,1.9,4.3,4.3,4.3h33.5   c2.6,3.5,6.8,5.8,11.5,5.8c8,0,14.5-6.5,14.5-14.5C85.4,67.9,81.7,62.7,76.3,60.6z M57.6,79.7H25.9c-0.7,0-1.3-0.6-1.3-1.3V21.6   c0-0.7,0.6-1.3,1.3-1.3H72c0.7,0,1.3,0.6,1.3,1.3v38.1c-0.8-0.1-1.6-0.2-2.4-0.2c-8,0-14.5,6.5-14.5,14.5   C56.4,76,56.9,78,57.6,79.7z M70.9,85.5c-6.3,0-11.5-5.2-11.5-11.5s5.2-11.5,11.5-11.5S82.4,67.7,82.4,74S77.3,85.5,70.9,85.5z    M77,67.9c-0.6-0.6-1.5-0.6-2.1,0l-3.9,3.9L67,67.9c-0.6-0.6-1.5-0.6-2.1,0s-0.6,1.5,0,2.1l3.9,3.9l-3.9,3.9   c-0.6,0.6-0.6,1.5,0,2.1c0.3,0.3,0.7,0.4,1.1,0.4s0.8-0.1,1.1-0.4l3.9-3.9l3.9,3.9c0.3,0.3,0.7,0.4,1.1,0.4s0.8-0.1,1.1-0.4   c0.6-0.6,0.6-1.5,0-2.1L73.1,74l3.9-3.9C77.6,69.5,77.6,68.5,77,67.9z"/></g><text x="0" y="115" fill="#000000" font-size="5px" font-weight="bold" font-family="'Helvetica Neue', Helvetica, Arial-Unicode, Arial, Sans-serif">Created by Marcel Grigio</text><text x="0" y="120" fill="#000000" font-size="5px" font-weight="bold" font-family="'Helvetica Neue', Helvetica, Arial-Unicode, Arial, Sans-serif">from the Noun Project</text></svg>