<svg id="pencil-icon" xmlns="http://www.w3.org/2000/svg" viewBox="0 0 25.63 25.64"><defs><style>.cls-1{fill:#fff;}</style></defs><title>Vector Smart Object3</title><path class="cls-1" d="M20.09.25a2.24,2.24,0,0,0-1.62.66l-1,1,6.59,6.62,1-1a2.32,2.32,0,0,0,0-3.28L21.75.94A2.36,2.36,0,0,0,20.09.25ZM16.34,2.84l-1.56,1.5,6.88,6.88,1.59-1.47ZM13.78,5.44,3,16.16a1,1,0,0,0-.5.63L.16,24.63a1,1,0,0,0,1.22,1.22l7.84-2.31a1,1,0,0,0,.78-.66L20.66,12.31l-1.47-1.47-10.94,11L3.84,23.09l-.94-.94,1.34-4.59L15.09,6.75Zm2.38,2.41-11,11,1.59.34L7,20.66l11-11Z" transform="translate(-0.11 -0.25)"/></svg>
