<svg version="1.1" id="Layer_1" xmlns="http://www.w3.org/2000/svg" xmlns:xlink="http://www.w3.org/1999/xlink" x="0px" y="0px"
   width="200px" height="200px" viewBox="0 0 200 200" enable-background="new 0 0 200 200" xml:space="preserve">
<path fill="#FFFFFF" d="M100,10c49.626,0,90,40.374,90,90s-40.374,90-90,90s-90-40.374-90-90S50.374,10,100,10 M100,0
  C44.772,0,0,44.772,0,100s44.772,100,100,100s100-44.772,100-100S155.228,0,100,0L100,0z"/>
<path fill="#FFFFFF" d="M72.639,53.168c-1.036,0-2.072,0.268-3,0.804c-1.856,1.072-3,3.053-3,5.196v81.664
  c0,2.144,1.144,4.124,3,5.196c0.928,0.536,1.964,0.804,3,0.804c1.036,0,2.072-0.268,3-0.804l70.723-40.832
  c1.856-1.072,3-3.053,3-5.196s-1.144-4.124-3-5.196L75.639,53.972C74.71,53.436,73.675,53.168,72.639,53.168L72.639,53.168z"/>
</svg>